<?xml version="1.0" encoding="utf-8"?>
<!-- Generator: Adobe Illustrator 21.0.2, SVG Export Plug-In . SVG Version: 6.00 Build 0)  -->
<svg version="1.1" id="Layer_1" xmlns="http://www.w3.org/2000/svg" xmlns:xlink="http://www.w3.org/1999/xlink" x="0px" y="0px"
	 viewBox="0 0 216 216" style="enable-background:new 0 0 216 216;" xml:space="preserve">
<style type="text/css">
	.st0{fill:#231F20;}
	.st1{fill:#84CFC4;}
	.st2{fill:#00C4B3;}
	.st3{fill:#FFFFFF;}
</style>
<path class="st0" d="M85.7,94.2C85.8,94.1,85.8,94.1,85.7,94.2c0-0.1,0-0.2,0-0.2l0,0c-2.7-1.6-11.6-6.9-11.6-6.9c0,0-0.1,0-0.1,0
	c0,0-0.1,0-0.1,0l-7.4,6.4l0-13.8c0-0.1-0.1-0.2-0.2-0.2c0,0-0.1,0-0.1,0l0,0c-5.4,3.2-10.4,6.1-13.1,7.7l0,0c0,0-0.1,0.1-0.1,0.1
	l0,0l0,6.1l-7.4-6.4l0,0c0,0-0.1,0-0.1,0c0,0-0.1,0-0.1,0c0,0-9,5.3-11.7,6.9c0,0-0.1,0.1-0.1,0.1c0,0,0,0.1,0,0.1
	c0.3,0.5,15.7,14,15.7,14s-15.1,13.1-15.4,13.5l0,0l0,0c0,0,0,0.1,0,0.1c0,0.1,0,0.1,0.1,0.1l0,0l0,0c4.7,2.8,9.1,5.4,11.8,7l0,0
	c0,0,0.1,0,0.1,0c0,0,0.1,0,0.1,0l0,0l6.9-6l0,13.4c0,0.1,0.1,0.2,0.2,0.2c0,0,0.1,0,0.1,0c0,0,10.2-6,13.1-7.7c0,0,0.1-0.1,0.1-0.1
	l0-5.7l7.1,6.2c0,0,0.1,0,0.1,0c0,0,0.1,0,0.1,0c2.7-1.6,11.7-6.9,11.7-6.9c0,0,0.1-0.1,0.1-0.1c0,0,0-0.1,0-0.1
	c-0.3-0.4-15.5-13.7-15.5-13.7S85.4,94.7,85.7,94.2z M67.4,108.1c0,0,0,0.1,0,0.1s0,0.1,0,0.1l15.4,13.3c-3.5,2.1-6.7,4-9,5.3
	l-8.9-7.7c0,0-0.1,0-0.1,0c0,0,0,0-0.1,0c0,0-0.1,0.1-0.1,0.1v8.3c-2.4,1.4-6,3.6-9.9,5.8v-14.2c0-0.1,0-0.1-0.1-0.1c0,0,0,0-0.1,0
	c0,0-0.1,0-0.1,0l-8.7,7.5c-2.3-1.4-5.5-3.3-9-5.3l13.8-12l1.4-1.2c0,0,0-0.1,0-0.1s0-0.1,0-0.1l-1.4-1.2L36.5,94.5
	c2.4-1.4,5.6-3.3,9-5.3l6.5,5.6l2.7,2.3c0,0,0.1,0,0.1,0c0,0,0,0,0.1,0c0,0,0.1-0.1,0.1-0.1v-8.7l8.7-5.2l0,3.1l-5.4,3.4
	c0,0-0.1,0.1-0.1,0.1l0,3c0,0,0,0.1,0.1,0.1c0,0,0,0,0.1,0c0,0,0.1,0,0.1,0l3.7-2.4v2.4l-3.9,2.7c0,0-0.1,0.1-0.1,0.1l0,4.8
	l-2.4,2.1l-1-0.8c0,0-0.1,0-0.1,0c0,0,0,0-0.1,0c0,0-0.1,0.1-0.1,0.1v3.8c0,0.1,0,0.1,0.1,0.1c0,0,0,0,0.1,0c0,0,0.1,0,0.1,0
	l19.4-16.7c3.4,2,6.6,3.9,9,5.3L67.4,108.1z M124.2,103c0.1,0,0.1,0,0.1,0.1v11.6c0,0.9,0.2,2.2,2,2.2c1.4,0,2.4-0.9,2.8-1.4
	c0,0,0,0,0-0.1v-12.3c0-0.1,0-0.1,0.1-0.1h6.4c0.1,0,0.1,0,0.1,0.1v13.6c0,0,0,0,0,0l0.4,5.3c0,0,0,0.1,0,0.1c0,0,0,0-0.1,0h-5.8
	c-0.1,0-0.1,0-0.1-0.1l-0.4-2c0,0,0-0.1-0.1-0.1c0,0-0.1,0-0.1,0c-1.2,1.6-3.1,2.7-5.9,2.7c-4.5,0-5.9-3.4-5.9-6.8v-12.7
	c0-0.1,0-0.1,0.1-0.1H124.2z M146.4,109.4C146.4,109.4,146.4,109.5,146.4,109.4c-1.1,0.3-1.8,0.8-2.1,1.1c0,0,0,0,0,0.1V122
	c0,0.1,0,0.1-0.1,0.1h-6.4c-0.1,0-0.1,0-0.1-0.1v-13.6c0,0,0,0,0,0l-0.4-5.3c0,0,0-0.1,0-0.1c0,0,0,0,0.1,0h5.8c0.1,0,0.1,0,0.1,0.1
	l0.3,1.8c0,0,0,0.1,0.1,0.1s0.1,0,0.1,0c1.1-1.5,2.8-2.4,4.9-2.4c0.1,0,0.3,0,0.4,0c0.1,0,0.1,0.1,0.1,0.1v1.3c0,0,0,0.1,0,0.1
	C147.8,105.3,146.8,107.1,146.4,109.4z M109,93.4c0-0.1,0-0.1,0.1-0.1h6.4c0.1,0,0.1,0,0.1,0.1V122c0,0.1,0,0.1-0.1,0.1h-6.4
	c-0.1,0-0.1,0-0.1-0.1V93.4z M162.9,116c0,0-0.1-0.1-0.1-0.1h-3.3c-0.1,0-0.1,0-0.1,0.1c-0.1,0.9-1.1,1.6-2.6,1.6
	c-1.5,0-2.6-0.6-2.8-2.6c0,0,0-0.1,0-0.1c0,0,0,0,0.1,0h8.6c0,0,0.1,0,0.1,0c0,0,0-0.1,0-0.1c-0.1-0.5-0.1-1.1-0.1-1.7V112
	c0-2.3,0.6-4.4,1.4-5.9c0,0,0-0.1,0-0.1c-1.4-2.3-4-3.5-7.7-3.5c-5.6,0-9,3.9-9,9.5v1.1c0,5.6,2.8,9.5,9.3,9.5c3.7,0,6.2-1,7.8-2.8
	c0,0,0-0.1,0-0.1C163.8,118.7,163.2,117.3,162.9,116z M156.5,107.4c1.5,0,2.3,0.7,2.5,2.6c0,0,0,0.1,0,0.1c0,0,0,0-0.1,0H154
	c0,0-0.1,0-0.1,0s0-0.1,0-0.1C154.1,108.1,154.9,107.4,156.5,107.4z M170.6,114.9C170.5,114.9,170.5,114.9,170.6,114.9
	c-0.1,0.1-0.1,0.1-0.1,0.1c0.2,2.1,1.3,2.6,2.9,2.6c1.4,0,2.5-0.7,2.6-1.6c0-0.1,0.1-0.1,0.1-0.1h6c0.1,0,0.1,0,0.1,0.1v0
	c0,3.8-3.3,6.5-8.8,6.5c-6.5,0-9.5-3.9-9.5-9.5V112c0-5.6,3.2-9.5,9.3-9.5c6.2,0,9,3.9,9,9.5v2.8c0,0.1,0,0.1-0.1,0.1H170.6z
	 M170.5,110.1C170.5,110.1,170.5,110.1,170.5,110.1c0,0.1,0.1,0.1,0.1,0.1h4.9c0,0,0.1,0,0.1,0c0,0,0-0.1,0-0.1
	c-0.2-1.9-1-2.6-2.5-2.6C171.5,107.4,170.7,108.1,170.5,110.1z M107.2,94c0.1,0,0.1,0,0.1,0.1v5.7c0,0.1,0,0.1-0.1,0.1h-9.1
	c-0.1,0-0.1,0-0.1,0.1v4.7c0,0.1,0,0.1,0.1,0.1h7.3c0.1,0,0.1,0,0.1,0.1v5.7c0,0.1,0,0.1-0.1,0.1h-7.3c-0.1,0-0.1,0-0.1,0.1V122
	c0,0.1,0,0.1-0.1,0.1h-6.6c-0.1,0-0.1,0-0.1-0.1V94.1c0-0.1,0-0.1,0.1-0.1H107.2z"/>
</svg>
